<?xml version="1.0" standalone="no"?><!DOCTYPE svg PUBLIC "-//W3C//DTD SVG 1.1//EN" "http://www.w3.org/Graphics/SVG/1.1/DTD/svg11.dtd"><svg t="1666062784443" class="icon" viewBox="0 0 1024 1024" version="1.1" xmlns="http://www.w3.org/2000/svg" p-id="6811" xmlns:xlink="http://www.w3.org/1999/xlink" width="16" height="16"><path d="M725.543629 445.258957 725.543629 345.192858 625.480602 345.192858 625.480602 245.135053 525.416653 245.135053 525.416653 145.076122 425.352602 145.076122 425.352602 45.016269 225.219482 45.016269 225.219482 145.076122 325.289574 145.076122 325.289574 245.135053 425.352602 245.135053 425.352602 345.192858 525.416653 345.192858 525.416653 445.258957 625.480602 445.258957 625.480602 545.31369 525.416653 545.31369 525.416653 645.379789 425.352602 645.379789 425.352602 745.437594 325.289574 745.437594 325.289574 845.497549 225.219482 845.497549 225.219482 945.556378 425.352602 945.556378 425.352602 845.497549 525.416653 845.497549 525.416653 745.437594 625.480602 745.437594 625.480602 645.379789 725.543629 645.379789 725.543629 545.31369 825.61577 545.31369 825.61577 445.258957Z" p-id="6812" fill="#b7bbc8"></path></svg>