<svg xmlns="http://www.w3.org/2000/svg" xmlns:xlink="http://www.w3.org/1999/xlink" fill="none" version="1.1" width="24" height="24" viewBox="0 0 24 24"><clipPath id="master_svg0_0_384"><rect x="0" y="0" width="24" height="24" rx="0"/></clipPath><g clip-path="url(#master_svg0_0_384)" style="opacity:0.4000000059604645;mix-blend-mode:passthrough"><g><g style="mix-blend-mode:passthrough"><path d="M3,11C2.447715,11,2,11.447715,2,12C2,12.55228,2.447715,13,3,13C3,13,3,11,3,11C3,11,3,11,3,11ZM21,13C21.5523,13,22,12.55228,22,12C22,11.447715,21.5523,11,21,11C21,11,21,13,21,13C21,13,21,13,21,13ZM3,13C3,13,21,13,21,13C21,13,21,11,21,11C21,11,3,11,3,11C3,11,3,13,3,13C3,13,3,13,3,13Z" fill="#FFFFFF" fill-opacity="1"/></g><g style="mix-blend-mode:passthrough"><path d="M3,5C2.447715,5,2,5.447715,2,6C2,6.55228,2.447715,7,3,7C3,7,3,5,3,5C3,5,3,5,3,5ZM21,7C21.5523,7,22,6.55228,22,6C22,5.447715,21.5523,5,21,5C21,5,21,7,21,7C21,7,21,7,21,7ZM3,7C3,7,21,7,21,7C21,7,21,5,21,5C21,5,3,5,3,5C3,5,3,7,3,7C3,7,3,7,3,7Z" fill="#FFFFFF" fill-opacity="1"/></g><g style="mix-blend-mode:passthrough"><path d="M3,17C2.447715,17,2,17.447715,2,18C2,18.55228,2.447715,19,3,19C3,19,3,17,3,17C3,17,3,17,3,17ZM21,19C21.5523,19,22,18.55228,22,18C22,17.447715,21.5523,17,21,17C21,17,21,19,21,19C21,19,21,19,21,19ZM3,19C3,19,21,19,21,19C21,19,21,17,21,17C21,17,3,17,3,17C3,17,3,19,3,19C3,19,3,19,3,19Z" fill="#FFFFFF" fill-opacity="1"/></g></g></g></svg>