<svg xmlns="http://www.w3.org/2000/svg" xmlns:xlink="http://www.w3.org/1999/xlink" fill="none" version="1.1" width="14" height="14" viewBox="0 0 14 14"><clipPath id="master_svg0_0_32"><rect x="0" y="0" width="14" height="14" rx="0"/></clipPath><g clip-path="url(#master_svg0_0_32)" style="opacity:0.10000000149011612;mix-blend-mode:passthrough"><g><g style="mix-blend-mode:passthrough"><path d="M10.08333,6.41667C10.08333,8.44171,8.44171,10.08333,6.41667,10.08333C6.41667,10.08333,6.41667,12.0833,6.41667,12.0833C9.54628,12.0833,12.0833,9.54628,12.0833,6.41667C12.0833,6.41667,10.08333,6.41667,10.08333,6.41667C10.08333,6.41667,10.08333,6.41667,10.08333,6.41667ZM6.41667,10.08333C4.39162,10.08333,2.75,8.44171,2.75,6.41667C2.75,6.41667,0.75,6.41667,0.75,6.41667C0.75,9.54628,3.28705,12.0833,6.41667,12.0833C6.41667,12.0833,6.41667,10.08333,6.41667,10.08333C6.41667,10.08333,6.41667,10.08333,6.41667,10.08333ZM2.75,6.41667C2.75,4.39162,4.39162,2.75,6.41667,2.75C6.41667,2.75,6.41667,0.75,6.41667,0.75C3.28705,0.75,0.75,3.28705,0.75,6.41667C0.75,6.41667,2.75,6.41667,2.75,6.41667C2.75,6.41667,2.75,6.41667,2.75,6.41667ZM6.41667,2.75C8.44171,2.75,10.08333,4.39162,10.08333,6.41667C10.08333,6.41667,12.0833,6.41667,12.0833,6.41667C12.0833,3.28705,9.54628,0.75,6.41667,0.75C6.41667,0.75,6.41667,2.75,6.41667,2.75C6.41667,2.75,6.41667,2.75,6.41667,2.75Z" fill="#FFFFFF" fill-opacity="1"/></g><g style="mix-blend-mode:passthrough"><path d="M11.542893433227539,12.957099128112793C11.933423433227539,13.347619128112793,12.566583433227539,13.347619128112793,12.957113433227539,12.957099128112793C13.34763343322754,12.566569128112793,13.34763343322754,11.933409128112793,12.957113433227539,11.542879128112792C12.957113433227539,11.542879128112792,11.542893433227539,12.957099128112793,11.542893433227539,12.957099128112793C11.542893433227539,12.957099128112793,11.542893433227539,12.957099128112793,11.542893433227539,12.957099128112793ZM10.41961343322754,9.005381128112793C10.02908343322754,8.614858428112793,9.395919433227538,8.614858428112793,9.00539543322754,9.005381128112793C8.61487273322754,9.395906128112793,8.61487273322754,10.029069128112793,9.00539543322754,10.419599128112793C9.00539543322754,10.419599128112793,10.41961343322754,9.005381128112793,10.41961343322754,9.005381128112793C10.41961343322754,9.005381128112793,10.41961343322754,9.005381128112793,10.41961343322754,9.005381128112793ZM12.957113433227539,11.542879128112792C12.957113433227539,11.542879128112792,10.41961343322754,9.005381128112793,10.41961343322754,9.005381128112793C10.41961343322754,9.005381128112793,9.00539543322754,10.419599128112793,9.00539543322754,10.419599128112793C9.00539543322754,10.419599128112793,11.542893433227539,12.957099128112793,11.542893433227539,12.957099128112793C11.542893433227539,12.957099128112793,12.957113433227539,11.542879128112792,12.957113433227539,11.542879128112792C12.957113433227539,11.542879128112792,12.957113433227539,11.542879128112792,12.957113433227539,11.542879128112792Z" fill="#FFFFFF" fill-opacity="1"/></g></g></g></svg>